#!OML:ASF F:\VICON\USERDATA\INSTALL\rory3\rory3.ASF
:FULLY-SPECIFIED
:DEGREES
115
root -0.8361824129614748 17.365502409677898 18.548610204432894 2.9550291991275355 -4.3130107695356665 -3.22452335559594
lfemur -27.6605713690066 6.108737272339079 -18.79820424190492
ltibia 73.44207751878113
lfoot 6.66444306536682 -8.353951343128465
ltoes -6.098995661585489
rfemur -15.078778876811663 5.88378011601567 30.72336400007596
rtibia 89.55742610604455
rfoot -3.740954254144959 -10.399982478043137
rtoes 6.353505717874723
lowerback 16.2952585038273 1.4494342590883806 2.0940554902048953
upperback -0.1463093378244925 2.467468972576212 1.5864563285197437
thorax -10.475871963192105 1.151489512906362 0.08944084761433024
lowerneck -20.253437498254087 -4.2945914531575315 -2.0813675382738177
upperneck 11.490495794222625 -5.698159740134827 2.688434645797153
head 7.607531187273069 -2.4834870444616257 0.3257617194879355
lclavicle 1.1245391003497643e-15 -1.4766016290023024e-15
lhumerus -40.78683862413198 -14.637986620676186 96.23642967803626
lradius 116.99217149846432
lwrist 34.445278050515
lhand -30.537677396873516 0.49106953515488416
lfingers 7.125019999999998
lthumb -4.455205134226363 30.106664752104198
rclavicle 1.124539100416626e-15 -1.4766016289577515e-15
rhumerus -53.67717572701105 8.729410376721388 -97.49664942551496
rradius 118.03957777018515
rwrist -13.923321419915403
rhand -18.24404991658158 37.558039667923026
rfingers 7.125019999999998
rthumb 6.2650456406437165 8.54302365093192
116
root -0.8186542738540323 17.40102960630625 18.775308692510915 3.045580856527282 -4.310034463157056 -3.254276949308167
lfemur -27.39196227118804 5.935395789088817 -18.94278659947171
ltibia 71.83449311026025
lfoot 7.137016396552978 -9.43678868127872
ltoes -7.4406006001330205
rfemur -15.32490743694695 5.687612019937642 30.6859175332782
rtibia 89.29145707549877
rfoot -3.64961221029137 -10.194754302372818
rtoes 5.022730109636952
lowerback 16.107449966775835 1.4549874969381045 2.1844555675030444
upperback -0.20343823351432067 2.4839482469141148 1.6244992212342215
thorax -10.391000735292312 1.16761411558518 0.08602120286064191
lowerneck -20.08580423102867 -4.253762252785876 -2.044530763230568
upperneck 11.800800559663621 -5.649169480811512 2.626598018509831
head 7.721467701690165 -2.466749863720541 0.31349208284573243
lclavicle 1.1245391003517804e-15 -1.4766016290009464e-15
lhumerus -41.031965066015786 -14.326386940622813 96.25727221168975
lradius 117.23050003783216
lwrist 34.46742809363208
lhand -30.239089780851966 0.38980943955066344
lfingers 7.125019999999998
lthumb -4.30365782575361 30.075706240798244
rclavicle 1.1245391004184261e-15 -1.4766016289566158e-15
rhumerus -53.535470964596435 8.90462180298581 -97.40368175936958
rradius 117.96285295546463
rwrist -14.237130742269695
rhand -18.32511581934675 38.160300434246565
rfingers 7.125019999999998
rthumb 6.257594391559062 9.093905613056672
117
root -0.8045587135003154 17.446820946661646 18.96512552305704 3.1273904094866714 -4.252615468873769 -3.3181008091930995
lfemur -27.12207270904381 5.727110707641758 -19.059148376121016
ltibia 70.23020197631656
lfoot 7.690220865359303 -10.537652560146086
ltoes -8.744859738065946
rfemur -15.504006692353258 5.420567566924667 30.68802469376339
rtibia 88.88570591721162
rfoot -3.1921435840445764 -9.857754479902965
rtoes 4.209075750013102
lowerback 15.945231378062353 1.4545802641240286 2.30314741242149
upperback -0.2177833846338897 2.5118027122996955 1.6471234943213526
thorax -10.244833979524701 1.1883708274460578 0.07624331182661376
lowerneck -19.917640903899763 -4.235118660867348 -2.0496344382732534
upperneck 12.11125206483049 -5.630604744741644 2.594951306436649
head 7.846170012248295 -2.461517059866969 0.3117509005998333
lclavicle 1.1245391003485717e-15 -1.4766016290035548e-15
lhumerus -41.09807020501189 -14.253992813878346 96.3468991937931
lradius 117.35290704808676
lwrist 33.70250162510593
lhand -30.0393903499331 0.18223698002700991
lfingers 7.125019999999998
lthumb -4.156212757914877 30.062322766472946
rclavicle 1.1245391004157921e-15 -1.476601628958826e-15
rhumerus -53.39116475963136 9.043683555692871 -97.26197175690832
rradius 117.91717250761606
rwrist -14.37246046459194
rhand -18.46406019979455 38.64266719315353
rfingers 7.125019999999998
rthumb 6.1687024776765575 9.500773032370134
118
root -0.8034258718447002 17.506464429985037 19.175253345131008 3.227243388363057 -4.147058467061237 -3.4024863125914564
lfemur -26.838258938450558 5.482807138046655 -19.14749180522694
ltibia 68.71737246588003
lfoot 7.394233224779619 -11.764099088906935
ltoes -10.778172462435297
rfemur -15.704975702892568 5.204831429072761 30.736555254774974
rtibia 88.30494209209121
rfoot -3.0176918520757074 -9.752567982256771
rtoes 3.71142069690439
lowerback 15.85714816442261 1.4557567476123232 2.4161242640541785
upperback -0.26676703161013027 2.5675680407364174 1.7246501912669414
thorax -10.301481220360566 1.2048265208274416 0.019375893939669875
lowerneck -19.683014102574298 -4.219682262107205 -2.0604289491869388
upperneck 12.38137013941913 -5.608754092312768 2.56627909504492
head 7.940309902375674 -2.4563597219232522 0.3149718095276167
lclavicle 1.1245391003464568e-15 -1.4766016290051072e-15
lhumerus -41.16161348562137 -14.05616406811538 96.46386128976324
lradius 117.45658684540038
lwrist 33.31309634962585
lhand -29.88299168734967 0.08293775664485964
lfingers 7.125019999999998
lthumb -3.891463396979912 30.07113427224549
rclavicle 1.1245391004158045e-15 -1.476601628958793e-15
rhumerus -53.324814249755086 9.105937348220918 -97.10536613750374
rradius 117.91783502975692
rwrist -14.475220138664158
rhand -18.601043514709826 39.07782184938856
rfingers 7.125019999999998
rthumb 6.12174191572505 10.013251749794014
